<?xml version="1.0" standalone="no"?>
<!DOCTYPE svg PUBLIC "-//W3C//DTD SVG 20010904//EN"
 "http://www.w3.org/TR/2001/REC-SVG-20010904/DTD/svg10.dtd">
<svg version="1.0" xmlns="http://www.w3.org/2000/svg"
 width="256.000000pt" height="256.000000pt" viewBox="0 0 256.000000 256.000000"
 preserveAspectRatio="xMidYMid meet">

<g transform="translate(0.000000,256.000000) scale(0.100000,-0.100000)"
fill="#000000" stroke="none">
<path d="M1639 1780 c-15 -16 -15 -19 2 -34 17 -15 21 -15 38 0 18 16 18 17 0
35 -22 22 -20 22 -40 -1z"/>
<path d="M1154 1718 l-19 -23 23 19 c21 18 27 26 19 26 -2 0 -12 -10 -23 -22z"/>
<path d="M715 1691 c-3 -5 -1 -12 5 -16 5 -3 10 1 10 9 0 18 -6 21 -15 7z"/>
<path d="M1982 1583 c-1 -35 -5 -63 -9 -63 -4 0 -28 19 -53 43 l-45 42 41 -45
c23 -25 42 -54 42 -65 0 -11 -19 -40 -42 -65 l-41 -45 45 43 c25 23 49 42 52
42 4 0 9 -30 11 -67 l3 -68 2 68 c1 37 5 67 9 67 4 0 28 -19 53 -42 l45 -43
-41 45 c-23 25 -42 54 -42 65 0 11 19 40 42 65 l41 45 -45 -42 c-25 -24 -49
-43 -52 -43 -4 0 -9 28 -11 63 l-3 62 -2 -62z"/>
<path d="M1340 1533 l-85 -88 88 85 c48 46 87 86 87 87 0 8 -11 -3 -90 -84z"/>
<path d="M905 1540 c3 -5 8 -10 11 -10 2 0 4 5 4 10 0 6 -5 10 -11 10 -5 0 -7
-4 -4 -10z"/>
<path d="M1730 1519 c0 -5 5 -7 10 -4 6 3 10 8 10 11 0 2 -4 4 -10 4 -5 0 -10
-5 -10 -11z"/>
<path d="M549 1423 c-15 -14 -15 -17 4 -36 18 -18 21 -18 29 -3 5 9 17 16 26
17 13 0 12 3 -5 11 -13 6 -23 15 -23 20 0 12 -13 8 -31 -9z"/>
<path d="M1479 1383 c-13 -16 -12 -17 4 -4 16 13 21 21 13 21 -2 0 -10 -8 -17
-17z"/>
<path d="M1128 1295 c-21 -19 -34 -35 -30 -35 5 0 23 16 42 35 44 45 36 45
-12 0z"/>
<path d="M945 1188 l-110 -113 113 110 c104 102 117 115 109 115 -1 0 -52 -51
-112 -112z"/>
<path d="M1875 1230 c3 -5 10 -10 16 -10 5 0 9 5 9 10 0 6 -7 10 -16 10 -8 0
-12 -4 -9 -10z"/>
<path d="M540 1180 c0 -5 5 -10 10 -10 6 0 10 5 10 10 0 6 -4 10 -10 10 -5 0
-10 -4 -10 -10z"/>
<path d="M504 991 c-34 -21 -74 -68 -73 -85 0 -8 2 -8 5 0 3 7 13 10 23 7 15
-4 18 -13 16 -46 -2 -39 -2 -40 4 -7 6 37 36 53 52 28 6 -9 9 -7 9 8 0 18 -5
20 -26 16 -24 -4 -25 -3 -15 17 13 23 37 28 44 9 4 -10 6 -10 6 0 1 6 7 12 15
12 11 0 14 -16 14 -71 0 -70 -1 -71 -25 -66 -23 4 -24 3 -18 -29 4 -26 3 -34
-9 -34 -9 0 -20 9 -26 20 -9 16 -8 20 7 21 16 0 15 1 -2 8 -11 5 -25 4 -32 -1
-7 -6 -20 -8 -28 -4 -8 3 -15 0 -15 -5 0 -16 75 -89 91 -89 8 1 4 6 -9 13 -12
7 -20 16 -16 19 3 4 18 0 33 -9 24 -14 25 -14 7 1 -17 14 -17 16 -4 16 23 0
32 -18 18 -35 -11 -13 -6 -15 32 -15 88 0 159 75 156 164 l-1 51 -6 -55 c-5
-41 -10 -56 -23 -58 -16 -3 -18 5 -18 57 0 54 2 61 20 61 11 0 20 4 20 8 0 14
-70 82 -83 82 -7 0 -4 -5 6 -11 9 -6 15 -15 11 -20 -4 -6 -13 -4 -25 7 -10 9
-16 21 -13 25 10 18 -91 9 -122 -10z m74 -14 c3 -13 -4 -16 -33 -13 -31 2 -39
-2 -48 -21 -5 -13 -19 -23 -29 -23 -26 0 -18 22 13 37 13 7 20 13 14 13 -5 0
1 7 15 15 31 17 64 13 68 -8z m52 -2 c10 -12 10 -15 -4 -15 -9 0 -16 6 -16 13
0 8 -4 7 -10 -3 -5 -8 -10 -10 -10 -4 0 26 22 31 40 9z m71 -31 c10 -13 10
-17 -1 -24 -9 -6 -18 -3 -27 8 -12 16 -13 16 -7 0 5 -14 1 -18 -15 -18 -12 0
-21 2 -21 4 0 2 -3 11 -6 19 -4 11 2 17 18 20 41 8 45 7 59 -9z m-82 -31 c6
-21 11 -53 11 -70 0 -26 -4 -33 -20 -33 -18 0 -20 7 -20 70 0 77 13 91 29 33z
m61 -63 c0 -42 -3 -50 -19 -50 -16 0 -20 9 -23 50 -3 46 -1 50 20 50 20 0 22
-5 22 -50z m-102 -97 c-1 -44 -1 -45 -13 -22 -26 51 -28 69 -6 69 18 0 20 -6
19 -47z m39 30 c-2 -10 -8 -25 -11 -34 -5 -12 0 -15 24 -13 39 3 46 -10 14
-25 -36 -16 -54 1 -54 50 0 29 4 39 16 39 11 0 15 -6 11 -17z m57 3 c37 -7 42
-12 26 -31 -16 -20 -44 -20 -36 0 4 12 2 13 -14 3 -10 -7 -21 -10 -24 -7 -8 7
5 50 13 44 4 -2 20 -6 35 -9z m-174 -38 c0 -14 -27 -9 -41 8 -10 13 -10 17 2
25 13 8 39 -13 39 -33z"/>
<path d="M525 980 c-3 -6 1 -7 9 -4 18 7 21 14 7 14 -6 0 -13 -4 -16 -10z"/>
<path d="M620 720 c-9 -6 -10 -10 -3 -10 6 0 15 5 18 10 8 12 4 12 -15 0z"/>
<path d="M1785 960 c-3 -5 1 -10 10 -10 9 0 13 5 10 10 -3 6 -8 10 -10 10 -2
0 -7 -4 -10 -10z"/>
<path d="M1426 883 c-4 -13 -14 -23 -23 -23 -12 0 -10 -5 7 -23 23 -24 23 -24
42 -5 17 17 18 21 5 31 -8 7 -17 19 -19 27 -4 11 -7 9 -12 -7z"/>
<path d="M423 850 c0 -25 2 -35 4 -22 2 12 2 32 0 45 -2 12 -4 2 -4 -23z"/>
<path d="M520 849 c0 -5 5 -7 10 -4 6 3 10 8 10 11 0 2 -4 4 -10 4 -5 0 -10
-5 -10 -11z"/>
<path d="M1864 835 c-8 -34 3 -75 21 -75 8 0 17 11 21 25 8 34 -3 75 -21 75
-8 0 -17 -11 -21 -25z"/>
<path d="M1944 846 c-9 -23 0 -79 13 -83 18 -6 35 35 28 68 -7 30 -32 39 -41
15z"/>
<path d="M2029 653 c-13 -16 -12 -17 4 -4 16 13 21 21 13 21 -2 0 -10 -8 -17
-17z"/>
</g>
</svg>
