<svg width="1440" height="48" viewBox="0 0 1440 48" fill="none" xmlns="http://www.w3.org/2000/svg">
<g style="mix-blend-mode:luminosity">
<path fill-rule="evenodd" clip-rule="evenodd" d="M176.651 37.8069C169.471 42.4973 159.064 44.9998 150.104 44.9998C137.54 44.9998 126.229 40.8814 117.673 34.0316C117 33.493 117.603 32.7589 118.409 33.1784C127.644 37.9403 139.062 40.8051 150.857 40.8051C158.811 40.8051 167.562 39.3465 175.607 36.3196C176.823 35.862 177.839 37.0251 176.651 37.8069Z" fill="#FF9900"/>
<path fill-rule="evenodd" clip-rule="evenodd" d="M179.636 34.78C178.722 33.7409 173.569 34.2891 171.257 34.5322C170.552 34.6084 170.444 34.065 171.079 33.6741C175.183 31.1144 181.916 31.8533 182.701 32.7113C183.487 33.574 182.497 39.5563 178.641 42.4115C178.049 42.8501 177.485 42.6165 177.748 42.035C178.614 40.1187 180.556 35.8239 179.636 34.78Z" fill="#FF9900"/>
<path fill-rule="evenodd" clip-rule="evenodd" d="M171.418 15.6036V13.1154C171.418 12.7388 171.741 12.4862 172.128 12.4862H184.697C185.101 12.4862 185.423 12.7436 185.423 13.1154V15.2461C185.418 15.6036 185.079 16.0708 184.477 16.8096L177.964 25.0513C180.384 24.9988 182.939 25.3182 185.133 26.4145C185.628 26.6624 185.762 27.0247 185.8 27.3822V30.0373C185.8 30.3995 185.348 30.8238 184.875 30.6045C181.008 28.8074 175.871 28.612 171.596 30.6236C171.16 30.8333 170.703 30.4138 170.703 30.0516V27.53C170.703 27.1248 170.708 26.4336 171.165 25.8187L178.711 16.2281H172.144C171.741 16.2281 171.418 15.9754 171.418 15.6036Z" fill="black"/>
<path fill-rule="evenodd" clip-rule="evenodd" d="M125.568 31.1289H121.744C121.379 31.105 121.088 30.8619 121.061 30.5521V13.1583C121.061 12.8104 121.389 12.5339 121.798 12.5339H125.364C125.735 12.5482 126.031 12.8008 126.058 13.1154V15.3892H126.128C127.058 13.1917 128.806 12.1669 131.162 12.1669C133.555 12.1669 135.05 13.1917 136.126 15.3892C137.051 13.1917 139.154 12.1669 141.407 12.1669C143.01 12.1669 144.763 12.7532 145.834 14.0688C147.044 15.5322 146.796 17.6581 146.796 19.5219L146.791 30.4997C146.791 30.8476 146.463 31.1289 146.054 31.1289H142.236C141.854 31.105 141.547 30.8333 141.547 30.4997V21.2808C141.547 20.5468 141.623 18.7163 141.44 18.0204C141.155 16.8526 140.299 16.5236 139.192 16.5236C138.266 16.5236 137.298 17.0718 136.906 17.9489C136.513 18.826 136.551 20.2941 136.551 21.2808V30.4997C136.551 30.8476 136.223 31.1289 135.814 31.1289H131.995C131.608 31.105 131.307 30.8333 131.307 30.4997L131.302 21.2808C131.302 19.3408 131.662 16.4855 128.946 16.4855C126.198 16.4855 126.305 19.2693 126.305 21.2808V30.4997C126.305 30.8476 125.977 31.1289 125.568 31.1289Z" fill="black"/>
<path fill-rule="evenodd" clip-rule="evenodd" d="M196.244 12.1669C201.918 12.1669 204.989 16.4855 204.989 21.9768C204.989 27.2821 201.596 31.4911 196.244 31.4911C190.672 31.4911 187.639 27.1725 187.639 21.7909C187.639 16.3759 190.71 12.1669 196.244 12.1669ZM196.276 15.7181C193.458 15.7181 193.281 19.1215 193.281 21.2427C193.281 23.3686 193.243 27.9066 196.244 27.9066C199.208 27.9066 199.347 24.2457 199.347 22.0149C199.347 20.5468 199.278 18.7926 198.777 17.4007C198.347 16.19 197.492 15.7181 196.276 15.7181Z" fill="black"/>
<path fill-rule="evenodd" clip-rule="evenodd" d="M212.347 31.1289H208.539C208.157 31.105 207.851 30.8333 207.851 30.4997L207.845 13.1011C207.878 12.7818 208.195 12.5339 208.582 12.5339H212.126C212.46 12.5482 212.734 12.7484 212.809 13.0201V15.6799H212.879C213.95 13.3013 215.45 12.1669 218.091 12.1669C219.807 12.1669 221.479 12.715 222.555 14.2166C223.555 15.6084 223.555 17.9489 223.555 19.6315V30.5807C223.512 30.8858 223.195 31.1289 222.818 31.1289H218.984C218.634 31.105 218.344 30.8762 218.306 30.5807V21.1331C218.306 19.2311 218.553 16.4474 215.913 16.4474C214.982 16.4474 214.127 17.0003 213.702 17.8393C213.164 18.9022 213.095 19.9605 213.095 21.1331V30.4997C213.089 30.8476 212.756 31.1289 212.347 31.1289Z" fill="black"/>
<path fill-rule="evenodd" clip-rule="evenodd" d="M161.399 22.8204C161.399 24.1408 161.436 25.2419 160.683 26.4146C160.075 27.3679 159.107 27.9542 158.037 27.9542C156.569 27.9542 155.708 26.9627 155.708 25.4993C155.708 22.6107 158.629 22.0864 161.399 22.0864V22.8204ZM165.255 31.0812C165.002 31.2814 164.636 31.2957 164.351 31.1622C163.082 30.2279 162.851 29.7942 162.157 28.9028C160.059 30.7999 158.57 31.3672 155.854 31.3672C152.632 31.3672 150.131 29.6083 150.131 26.0857C150.131 23.3353 151.809 21.4619 154.208 20.5467C156.284 19.7364 159.183 19.5934 161.399 19.3693V18.9308C161.399 18.1252 161.468 17.1719 160.931 16.476C160.468 15.8515 159.575 15.5941 158.785 15.5941C157.327 15.5941 156.031 16.2567 155.714 17.6295C155.649 17.9346 155.396 18.2349 155.047 18.2492L151.341 17.8964C151.029 17.8345 150.68 17.6104 150.771 17.1862C151.621 13.2012 155.687 12 159.323 12C161.183 12 163.614 12.4385 165.083 13.6874C166.944 15.2271 166.766 17.2815 166.766 19.5171V24.7986C166.766 26.386 167.508 27.0819 168.207 27.9399C168.449 28.245 168.503 28.612 168.191 28.8408C167.411 29.4176 166.024 30.4901 165.26 31.0907L165.255 31.0812Z" fill="black"/>
<path fill-rule="evenodd" clip-rule="evenodd" d="M111.267 22.8204C111.267 24.1408 111.305 25.2419 110.552 26.4145C109.944 27.3679 108.982 27.9542 107.906 27.9542C106.438 27.9542 105.583 26.9627 105.583 25.4993C105.583 22.6107 108.503 22.0864 111.267 22.0864V22.8204ZM115.124 31.0812C114.871 31.2814 114.505 31.2957 114.22 31.1622C112.951 30.2279 112.725 29.7941 112.026 28.9028C109.928 30.7999 108.444 31.3672 105.722 31.3672C102.506 31.3672 100 29.6082 100 26.0856C100 23.3352 101.683 21.4619 104.077 20.5467C106.153 19.7364 109.052 19.5934 111.267 19.3693V18.9308C111.267 18.1252 111.337 17.1719 110.805 16.4759C110.337 15.8515 109.444 15.5941 108.659 15.5941C107.202 15.5941 105.9 16.2567 105.583 17.6295C105.518 17.9346 105.265 18.2349 104.921 18.2492L101.21 17.8964C100.898 17.8345 100.554 17.6104 100.64 17.1862C101.495 13.2012 105.556 12 109.191 12C111.052 12 113.483 12.4385 114.952 13.6874C116.812 15.2271 116.635 17.2815 116.635 19.5171V24.7986C116.635 26.3859 117.377 27.0819 118.076 27.9399C118.324 28.245 118.378 28.612 118.066 28.8408C117.286 29.4176 115.898 30.4901 115.134 31.0907L115.124 31.0812Z" fill="black"/>
</g>
<g style="mix-blend-mode:luminosity" clip-path="url(#clip0_333_1291)">
<path fill-rule="evenodd" clip-rule="evenodd" d="M445.59 30.5633C440.335 38.4606 432.011 36.1691 429.512 34.3749C428.448 35.0147 426.582 36.417 424.095 36.255C418.797 35.9104 416.9 29.2007 416.9 29.2007C416.938 29.2275 415.322 29.6949 414.448 29.6866C414.437 31.6542 412.518 36.3546 407.339 36.2945C401.527 36.2273 400.345 28.5531 400.345 28.5531C400.345 28.5531 399.767 29.2649 397.568 29.9739C397.678 28.4622 397.598 36.0644 390.632 36.1761C385.125 36.2646 383.638 28.4348 383.638 28.4348C383.638 28.4348 382.683 29.3143 380.831 29.6194C380.949 28.0831 380.758 36.2019 373.791 36.1761C369.083 36.1588 367.474 31.353 367.599 30.686C367.759 29.8359 366.008 36.2957 361.435 36.195C359.548 36.1459 358.141 34.9349 357.258 33.3204C356.076 34.5189 354.36 36.195 352.435 36.195C348.98 36.195 347.457 33.6337 347.715 26.3179C347.737 25.4502 347.666 25.109 346.693 24.9792C346.109 24.8928 345.511 24.7292 344.878 24.643C344.675 25.243 342.954 35.9998 337.037 36.204C335.052 36.2725 333.967 34.7485 333.075 33.6174C331.709 35.2194 329.905 36.255 327.336 36.255C322.983 36.255 320.018 33.1365 320.018 29.2895C320.018 25.4425 322.983 22.3242 327.336 22.3242C328.105 22.3242 328.321 22.422 329.024 22.6038C327.579 10.9365 330.993 9.11303 333.98 9.11303C336.848 9.11303 341.747 15.012 334.853 29.9751C336.384 34.4381 339.683 34.1857 341.269 24.9982C341.592 23.1307 340.729 20.6105 342.071 20.2588C344.524 19.616 344.784 21.5446 345.935 21.866C347.151 22.2056 347.861 22.1724 349.029 22.3885C351.024 22.7339 351.802 23.6838 351.559 25.7996C351.267 28.4767 350.757 32.3732 352.314 32.8481C353.437 33.1931 355.487 31.1293 355.846 30.0001C356.206 28.871 356.281 28.4845 356.313 27.6563C356.362 25.8861 356.423 24.5886 356.763 23.2499C356.909 22.7319 357.075 22.3888 357.736 22.3654C358.281 22.3531 359.276 22.2079 359.714 22.51C360.297 22.8988 360.225 23.2933 360.157 24.3316C359.479 39.1353 364.704 31.7452 366.263 25.8279C365.708 19.1369 366.089 9.23555 370.82 9.06949C373.28 8.98313 374.368 10.7301 374.487 12.034C374.826 15.7168 372.93 21.8172 370.437 25.9197C369.012 34.2907 376.667 35.9459 377.891 29.2642C375.888 28.4202 373.724 25.0044 375.485 23.3397C376.473 22.4055 380.587 23.7476 380.654 26.6748C382.672 26.1965 382.942 25.1867 382.97 25.354C382.415 18.663 382.93 9.23564 387.661 9.06957C390.121 8.98321 391.208 10.7301 391.328 12.0341C391.666 15.7168 389.771 21.8173 387.278 25.9199C385.853 34.2907 393.508 35.946 394.732 29.2643C393.249 29.0107 390.119 25.3775 391.925 23.3398C392.89 22.2509 396.989 24.5154 397.447 26.7717C399.386 26.2855 399.649 25.3078 399.677 25.4724C399.122 18.7816 399.637 9.35422 404.368 9.18815C406.828 9.10179 407.915 10.8487 408.035 12.1527C408.374 15.8354 406.478 21.936 403.985 26.0385C402.56 34.4095 410.215 36.0644 411.439 29.3827C409.401 29.082 406.505 25.2458 408.836 23.2833C409.767 22.4992 413.325 24.5346 414.158 26.8568C415.315 26.8173 416.036 26.4636 416.19 26.4279C414.343 18.573 415.718 9.14836 420.807 9.06969C423.558 9.02721 426.248 10.3877 425.067 17.8606C423.94 24.9906 419.89 27.9827 419.9 28.0285C420.135 28.8827 422.214 36.0312 427.447 32.2594C427.176 31.7157 426.905 31.1603 426.753 30.4874C425.886 26.5677 427.59 22.1404 432.221 21.4249C434.874 21.0149 437.374 22.1598 437.769 24.741C438.419 28.9645 434.116 32.0233 432.48 32.6868C431.747 32.3178 439.123 36.5107 443.501 28.108C443.755 27.6282 444.061 27.6689 444.457 27.9162C444.737 28.0908 446.332 29.4299 445.59 30.5633ZM330.502 28.2517C330.279 27.6615 329.822 26.361 329.66 25.7976C328.77 25.1114 328.135 25 326.992 25C324.453 25 322.958 27.0809 322.958 29.3247C322.958 31.5684 324.586 33.6496 327.126 33.6496C329.326 33.6496 331.001 32.3235 331.512 30.4462C331.155 29.7143 330.8 29.0417 330.502 28.2517ZM333.918 12.2015C332.134 12.2015 331.528 15.974 331.646 19.1924C331.75 22.0378 332.647 24.5428 333.112 25.6653C333.23 25.8059 333.208 25.7144 333.314 25.8636C336.412 19.8472 335.127 12.2015 333.918 12.2015ZM371.074 12.32C368.768 12.0855 368.783 20.6001 369.069 22.51C370.267 20.8118 372.348 12.7772 371.074 12.32ZM387.915 12.32C385.609 12.0855 385.624 20.6001 385.91 22.51C387.108 20.8118 389.189 12.7772 387.915 12.32ZM404.622 12.4384C402.316 12.204 402.331 20.7186 402.617 22.6287C403.815 20.9303 405.896 12.8956 404.622 12.4384ZM421.062 11.8215C417.469 12.461 418.306 23.0789 418.851 24.9412C423.084 19.789 423.171 11.628 421.062 11.8215ZM434.528 25.0903C434.346 24.4133 433.432 24.0515 432.802 24.1407C430.997 24.359 429.248 26.3505 429.925 29.3824C430.076 30.0576 430.453 30.6792 430.447 30.6585C434.485 28.2577 434.828 26.3659 434.528 25.0903ZM358.444 20.0218C357.928 20.0219 357.424 19.8864 356.995 19.6326C356.566 19.3787 356.232 19.0179 356.035 18.5957C355.837 18.1735 355.786 17.7089 355.886 17.2607C355.987 16.8124 356.235 16.4007 356.6 16.0775C356.964 15.7543 357.429 15.5342 357.935 15.4451C358.44 15.3559 358.965 15.4016 359.441 15.5765C359.917 15.7514 360.324 16.0476 360.611 16.4276C360.897 16.8076 361.05 17.2544 361.05 17.7114C361.05 18.0148 360.983 18.3152 360.852 18.5955C360.721 18.8758 360.529 19.1305 360.287 19.345C360.045 19.5596 359.758 19.7298 359.441 19.8459C359.125 19.962 358.786 20.0218 358.444 20.0218Z" fill="#0D0C22"/>
</g>
<g style="mix-blend-mode:luminosity" clip-path="url(#clip1_333_1291)">
<path d="M556.181 13.1064V22.1942H546.764V13.1064H542.293V34.7997H546.764V26.0071H556.181V34.7997H560.651V13.1064H556.181Z" fill="#33475B"/>
<path d="M574.96 27.7869C574.96 28.6563 574.57 29.4901 573.876 30.1049C573.183 30.7196 572.242 31.065 571.261 31.065C570.28 31.065 569.339 30.7196 568.646 30.1049C567.952 29.4901 567.562 28.6563 567.562 27.7869V18.4953H563.322V27.7869C563.322 29.6513 564.157 31.4394 565.645 32.7578C567.132 34.0761 569.15 34.8168 571.253 34.8168C573.357 34.8168 575.375 34.0761 576.862 32.7578C578.349 31.4394 579.185 29.6513 579.185 27.7869V18.4953H574.96V27.7869Z" fill="#33475B"/>
<path d="M606.381 19.4529C606.381 17.5484 607.803 16.9446 609.36 16.9446C610.615 16.9446 612.273 17.7911 613.358 18.8181L616.135 15.9176C614.749 14.2558 611.936 13.1065 609.634 13.1065C605.034 13.1065 601.707 15.4944 601.707 19.4529C601.707 26.7973 611.835 24.4676 611.835 28.5775C611.835 29.8453 610.447 30.9655 608.856 30.9655C606.348 30.9655 605.536 29.8783 604.383 28.729L601.301 31.5693C603.273 33.7145 605.704 34.8036 608.618 34.8036C612.988 34.8036 616.503 32.3866 616.503 28.6086C616.503 20.4547 606.375 22.9882 606.375 19.4529" fill="#33475B"/>
<path d="M669.042 31.3341C666.536 31.3341 665.824 30.3731 665.824 28.9015V22.3881H669.719V19.0877H665.824V14.7331L661.525 16.4435V29.7111C661.525 33.1047 664.166 34.815 667.789 34.815C668.358 34.8242 668.925 34.7839 669.485 34.6947L670.534 31.272C670.061 31.3011 669.518 31.3302 669.042 31.3302" fill="#33475B"/>
<path d="M591.102 18.6049C589.002 18.6049 587.536 19.1446 586.119 20.3774V13.2369H581.872V26.4715C581.872 31.4259 585.913 34.8195 590.454 34.8195C595.492 34.8195 599.924 31.3658 599.924 26.7141C599.924 22.1208 595.845 18.6068 591.102 18.6068V18.6049ZM591.076 31.0318C590.123 31.0318 589.191 30.7813 588.399 30.312C587.606 29.8427 586.989 29.1757 586.624 28.3952C586.259 27.6148 586.164 26.756 586.35 25.9275C586.536 25.099 586.995 24.3379 587.669 23.7406C588.343 23.1433 589.201 22.7365 590.136 22.5717C591.071 22.4069 592.04 22.4915 592.92 22.8148C593.801 23.138 594.554 23.6855 595.083 24.3878C595.613 25.0902 595.895 25.916 595.895 26.7607C595.895 27.8935 595.388 28.9799 594.484 29.7809C593.58 30.5818 592.354 31.0318 591.076 31.0318Z" fill="#33475B"/>
<path d="M637.221 26.5153C637.221 21.8559 632.798 18.4099 627.751 18.4099C623.21 18.4099 619.169 21.8035 619.169 26.758V40.0003H623.416V32.8501C624.831 34.0809 626.299 34.6226 628.398 34.6226C633.14 34.6226 637.219 31.1106 637.219 26.5153H637.221ZM633.199 26.4687C633.199 27.3134 632.916 28.1392 632.387 28.8416C631.857 29.544 631.105 30.0914 630.224 30.4147C629.344 30.7379 628.375 30.8225 627.44 30.6577C626.505 30.4929 625.646 30.0861 624.972 29.4888C624.298 28.8915 623.839 28.1304 623.654 27.3019C623.468 26.4734 623.563 25.6146 623.928 24.8342C624.292 24.0538 624.91 23.3867 625.703 22.9174C626.495 22.4481 627.427 22.1976 628.38 22.1976C629.658 22.1976 630.884 22.6476 631.788 23.4486C632.691 24.2495 633.199 25.3359 633.199 26.4687Z" fill="#33475B"/>
<path d="M650.9 18.3496V14.6066C651.458 14.3756 651.93 14.0088 652.262 13.5489C652.594 13.089 652.772 12.555 652.775 12.009V11.9216C652.772 11.1587 652.429 10.4276 651.821 9.88807C651.212 9.34858 650.387 9.04458 649.526 9.04254H649.428C648.567 9.04458 647.742 9.34858 647.133 9.88807C646.525 10.4276 646.182 11.1587 646.179 11.9216V12.009C646.182 12.555 646.36 13.089 646.692 13.5489C647.024 14.0088 647.496 14.3756 648.054 14.6066V18.3496C646.45 18.5671 644.938 19.1565 643.673 20.0581L632.077 12.0614C632.159 11.7976 632.204 11.5256 632.208 11.2519C632.209 10.6095 631.995 9.98128 631.593 9.44673C631.191 8.91217 630.619 8.49527 629.95 8.24873C629.281 8.00219 628.544 7.93708 627.833 8.06166C627.122 8.18623 626.468 8.49487 625.955 8.94857C625.442 9.40226 625.092 9.98063 624.95 10.6105C624.808 11.2404 624.88 11.8936 625.156 12.4873C625.433 13.0811 625.902 13.5889 626.504 13.9464C627.106 14.3039 627.814 14.4952 628.539 14.496C629.176 14.4939 629.801 14.3432 630.351 14.0591L641.752 21.9257C640.725 23.2989 640.19 24.9146 640.215 26.5619C640.24 28.2091 640.826 29.8113 641.895 31.1591L638.425 34.2343C638.146 34.1557 637.856 34.1138 637.564 34.11C636.968 34.11 636.386 34.2666 635.891 34.5599C635.395 34.8532 635.009 35.2701 634.781 35.7579C634.553 36.2457 634.494 36.7824 634.61 37.3002C634.726 37.818 635.013 38.2937 635.434 38.667C635.855 39.0403 636.392 39.2946 636.976 39.3976C637.561 39.5006 638.166 39.4477 638.717 39.2457C639.267 39.0436 639.737 38.7015 640.068 38.2625C640.399 37.8235 640.576 37.3074 640.576 36.7794C640.572 36.5204 640.525 36.2633 640.436 36.0165L643.868 32.9743C644.989 33.7328 646.29 34.2544 647.673 34.4993C649.055 34.7441 650.483 34.7058 651.846 34.3871C653.209 34.0685 654.472 33.478 655.539 32.6607C656.606 31.8434 657.447 30.8209 658 29.6713C658.553 28.5217 658.802 27.2754 658.728 26.0275C658.655 24.7796 658.26 23.5631 657.575 22.4709C656.89 21.3786 655.933 20.4395 654.776 19.7253C653.619 19.0111 652.293 18.5405 650.9 18.3496ZM649.478 30.6621C648.539 30.6621 647.621 30.4152 646.84 29.9527C646.059 29.4902 645.45 28.8329 645.091 28.0638C644.731 27.2947 644.637 26.4484 644.82 25.632C645.004 24.8155 645.456 24.0655 646.12 23.4769C646.784 22.8883 647.63 22.4874 648.552 22.325C649.473 22.1626 650.428 22.2459 651.295 22.5645C652.163 22.8831 652.905 23.4225 653.427 24.1147C653.949 24.8069 654.227 25.6206 654.227 26.4531C654.227 27.5694 653.727 28.6399 652.836 29.4293C651.946 30.2186 650.738 30.6621 649.478 30.6621Z" fill="#FF7A59"/>
</g>
<g style="mix-blend-mode:luminosity" clip-path="url(#clip2_333_1291)">
<path d="M817.525 34.7749V20.2199H817.818L829.772 34.7749H833.533V13.4006H829.354V27.919H829.061L817.107 13.4006H813.345V34.7749H817.525ZM845.362 35.1049C850.879 35.1049 854.265 31.9519 854.265 26.6725C854.265 21.4297 850.879 18.2401 845.362 18.2401C839.886 18.2401 836.459 21.4297 836.459 26.6725C836.501 31.9519 839.845 35.1049 845.362 35.1049ZM845.362 32.0252C842.436 32.0252 840.764 30.0821 840.764 26.6725C840.764 23.2995 842.436 21.3198 845.362 21.3198C848.288 21.3198 849.959 23.2995 849.959 26.6725C849.959 30.0821 848.288 32.0252 845.362 32.0252ZM858.068 14.6105V18.68H855.142V21.6131H858.068V30.4487C858.068 33.6017 859.74 34.8483 864.003 34.8483C864.797 34.8483 865.592 34.7749 866.219 34.6649V31.8053C865.717 31.8419 865.383 31.8786 864.797 31.8786C863.042 31.8786 862.248 31.182 862.248 29.5688V21.6131H866.219V18.68H862.248V14.6105H858.068ZM868.726 34.7749H872.906V18.5701H868.726V34.7749ZM870.816 15.8937C872.196 15.8937 873.324 14.9038 873.324 13.6939C873.324 12.4474 872.196 11.4575 870.816 11.4575C869.437 11.4575 868.308 12.4474 868.308 13.6939C868.308 14.9038 869.437 15.8937 870.816 15.8937ZM884.358 35.1049C889.876 35.1049 893.261 31.9519 893.261 26.6725C893.261 21.4297 889.876 18.2401 884.358 18.2401C878.883 18.2401 875.456 21.4297 875.456 26.6725C875.456 31.9519 878.799 35.1049 884.358 35.1049ZM884.358 32.0252C881.433 32.0252 879.761 30.0821 879.761 26.6725C879.761 23.2995 881.433 21.3198 884.358 21.3198C887.242 21.3198 888.956 23.2995 888.956 26.6725C888.914 30.0821 887.242 32.0252 884.358 32.0252ZM895.727 34.7749H899.907V25.3526C899.907 22.9696 901.495 21.4664 903.961 21.4664C906.511 21.4664 907.681 22.7129 907.681 25.1693V34.7749H911.861V24.2894C911.861 20.4032 909.604 18.2401 905.508 18.2401C902.749 18.2401 900.91 19.34 900.032 21.1731H899.74V18.5701H895.685C895.727 18.5701 895.727 34.7749 895.727 34.7749Z" fill="black"/>
<path fill-rule="evenodd" clip-rule="evenodd" d="M773.269 12.0326C774.486 12.9024 774.926 12.8337 777.203 12.6964L798.66 11.5519C799.126 11.5519 798.738 11.1399 798.583 11.0941L795.011 8.82806C794.338 8.37028 793.406 7.82093 791.672 7.95826L770.914 9.30874C770.163 9.37741 770.008 9.72075 770.318 9.97254L773.269 12.0326ZM774.563 16.4502V36.4098C774.563 37.4857 775.159 37.8748 776.53 37.8061L800.11 36.593C801.482 36.5243 801.637 35.7918 801.637 34.922V15.0998C801.637 14.23 801.249 13.7493 800.421 13.818L775.78 15.0998C774.874 15.1684 774.563 15.5804 774.563 16.4502ZM797.832 17.5261C797.988 18.1212 797.832 18.7392 797.159 18.8079L796.02 19.0139V33.7547C795.037 34.2125 794.131 34.4871 793.354 34.4871C792.138 34.4871 791.827 34.1438 790.921 33.1367L783.493 22.8135V32.7933L785.848 33.2511C785.848 33.2511 785.848 34.4642 783.959 34.4642L778.73 34.7389C778.575 34.4642 778.73 33.8005 779.248 33.6631L780.62 33.3198V20.1355L778.73 19.9981C778.575 19.403 778.963 18.5332 780.025 18.4645L785.641 18.1212L793.38 28.5588V19.3343L791.413 19.1283C791.258 18.3959 791.879 17.8465 792.63 17.7778L797.832 17.5261ZM769.18 7.47759L790.792 6.08133C793.432 5.87532 794.131 6.01266 795.787 7.08847L802.672 11.3688C803.811 12.1013 804.199 12.3073 804.199 13.1084V36.6159C804.199 38.0808 803.604 38.9506 801.482 39.0879L776.401 40.4384C774.796 40.5071 774.046 40.3011 773.217 39.3626L768.118 33.5258C767.212 32.45 766.824 31.6488 766.824 30.7104V9.81231C766.824 8.59917 767.445 7.61492 769.18 7.47759Z" fill="black"/>
</g>
<g style="mix-blend-mode:luminosity" clip-path="url(#clip3_333_1291)">
<path d="M1025.5 38.0663C1023.62 38.3595 1021.7 38.4474 1019.72 38.6816L1013.67 22.9786V39.3555C1011.78 39.5313 1010.06 39.7656 1008.28 40V10H1013.3L1020.18 27.0217V10H1025.5V38.0663ZM1035.91 20.9863C1037.96 20.9863 1041.1 20.8984 1042.99 20.8984V25.5858C1040.64 25.5858 1037.9 25.5858 1035.91 25.6737V32.6465C1039.02 32.4708 1042.13 32.2362 1045.27 32.1483V36.6597L1030.62 37.6854V10H1045.27V14.6875H1035.91V20.9863ZM1064.94 14.6876H1059.45V36.2501C1057.66 36.2501 1055.88 36.2501 1054.16 36.3085V14.6876H1048.67V10H1064.94L1064.94 14.6876ZM1073.53 20.6642H1080.77V25.3516H1073.53V35.9864H1068.34V10H1083.12V14.6875H1073.53V20.6642ZM1091.71 31.8848C1094.72 31.9432 1097.76 32.1486 1100.7 32.2948V36.9238C1095.98 36.66 1091.25 36.3966 1086.42 36.3085V10H1091.71V31.8848ZM1105.17 37.2461C1106.85 37.3341 1108.64 37.422 1110.35 37.5975V10H1105.17V37.2461ZM1133.53 10L1126.82 24.2676L1133.53 40C1131.54 39.7656 1129.56 39.4433 1127.58 39.1503L1123.78 30.4786L1119.91 38.4474C1117.99 38.1542 1116.14 38.0663 1114.22 37.8319L1121.03 24.0917L1114.88 10H1120.57L1124.04 17.8809L1127.74 10H1133.53V10Z" fill="#D81F26"/>
</g>
<g style="mix-blend-mode:luminosity" clip-path="url(#clip4_333_1291)">
<path fill-rule="evenodd" clip-rule="evenodd" d="M1319.36 20.5972C1319.78 21.2429 1319.92 21.9774 1319.97 22.8032L1320.03 23.9039V31.6007L1320.09 32.7025C1320.21 34.502 1321.71 35.8325 1323.75 35.9457L1324.99 36V23.9039L1325.05 22.8032C1325.1 21.9867 1325.24 21.2382 1325.67 20.588C1326.1 19.921 1326.73 19.3677 1327.49 18.9835C1328.24 18.5993 1329.09 18.3978 1329.97 18.3992C1330.84 18.4006 1331.69 18.6049 1332.44 18.9915C1333.2 19.3781 1333.82 19.9335 1334.25 20.6018C1334.68 21.2475 1334.81 21.9959 1334.86 22.8032L1334.92 23.9005V31.6007L1334.98 32.7025C1335.11 34.5112 1336.59 35.8418 1338.65 35.9457L1339.88 36V22.8032C1339.88 20.4697 1338.84 18.2317 1336.98 16.5813C1335.12 14.9309 1332.59 14.0032 1329.96 14.0023C1328.55 14.001 1327.16 14.2662 1325.87 14.7803C1324.59 15.2944 1323.44 16.0454 1322.51 16.9833C1321.58 16.0458 1320.43 15.2949 1319.15 14.7807C1317.87 14.2665 1316.47 14.0007 1315.06 14.0012C1313 14.0012 1311.09 14.5555 1309.5 15.513C1308.54 14.5567 1306.37 14.0012 1305.13 14.0012V36L1306.37 35.9457C1308.45 35.8244 1309.95 34.5297 1310.03 32.7025L1310.1 31.6007V23.9039L1310.16 22.8032C1310.21 21.9728 1310.34 21.2429 1310.77 20.5926C1311.2 19.9261 1311.83 19.3728 1312.58 18.9882C1313.34 18.6035 1314.19 18.4009 1315.06 18.4005C1315.93 18.4006 1316.79 18.6037 1317.54 18.9893C1318.3 19.3748 1318.92 19.9294 1319.36 20.5972ZM1234.39 35.9469L1235.63 36H1254.25L1254.19 34.9028C1254.02 33.0941 1252.57 31.7728 1250.53 31.655L1249.28 31.6007H1238.12L1253.01 18.3993L1252.94 17.3032C1252.85 15.4761 1251.34 14.1559 1249.28 14.0554L1248.04 14.0058L1229.43 14.0012L1229.49 15.1019C1229.65 16.8932 1231.12 18.2422 1233.15 18.3462L1234.39 18.4005H1245.56L1230.67 31.6018L1230.73 32.7025C1230.85 34.5159 1232.33 35.8291 1234.39 35.9457V35.9469ZM1300.26 17.2212C1301.41 18.2426 1302.33 19.4552 1302.95 20.7898C1303.57 22.1244 1303.89 23.5548 1303.89 24.9994C1303.89 26.444 1303.57 27.8744 1302.95 29.209C1302.33 30.5436 1301.41 31.7562 1300.26 32.7776C1297.93 34.8399 1294.77 35.9983 1291.48 35.9983C1288.19 35.9983 1285.03 34.8399 1282.7 32.7776C1277.86 28.4823 1277.86 21.5166 1282.7 17.2212C1283.85 16.2002 1285.22 15.3902 1286.73 14.8375C1288.23 14.2848 1289.84 14.0002 1291.47 14C1293.1 13.999 1294.72 14.2831 1296.23 14.836C1297.74 15.3889 1299.11 16.1999 1300.26 17.2224V17.2212ZM1296.75 20.3362C1298.14 21.5744 1298.93 23.2531 1298.93 25.0035C1298.93 26.7538 1298.14 28.4326 1296.75 29.6707C1295.35 30.908 1293.46 31.6029 1291.48 31.6029C1289.51 31.6029 1287.61 30.908 1286.21 29.6707C1284.82 28.4326 1284.03 26.7538 1284.03 25.0035C1284.03 23.2531 1284.82 21.5744 1286.21 20.3362C1287.61 19.099 1289.51 18.404 1291.48 18.404C1293.46 18.404 1295.35 19.099 1296.75 20.3362ZM1265.43 14C1267.05 14.0004 1268.67 14.2851 1270.17 14.8381C1271.68 15.391 1273.04 16.2012 1274.2 17.2224C1279.04 21.5166 1279.04 28.4834 1274.2 32.7776C1271.87 34.8399 1268.71 35.9983 1265.42 35.9983C1262.13 35.9983 1258.97 34.8399 1256.64 32.7776C1251.79 28.4823 1251.79 21.5166 1256.64 17.2212C1257.79 16.2002 1259.16 15.3902 1260.66 14.8375C1262.17 14.2848 1263.78 14.0002 1265.41 14H1265.43ZM1270.68 20.3339C1272.08 21.5721 1272.86 23.2511 1272.86 25.0017C1272.86 26.7524 1272.08 28.4314 1270.68 29.6696C1269.29 30.9068 1267.39 31.6018 1265.42 31.6018C1263.44 31.6018 1261.55 30.9068 1260.15 29.6696C1258.76 28.4314 1257.97 26.7527 1257.97 25.0023C1257.97 23.252 1258.76 21.5732 1260.15 20.335C1261.55 19.0978 1263.44 18.4028 1265.42 18.4028C1267.39 18.4028 1269.29 19.0978 1270.68 20.335V20.3339Z" fill="#2D8CFF"/>
</g>
<defs>
<clipPath id="clip0_333_1291">
<rect width="126.369" height="48" fill="white" transform="translate(320.018)"/>
</clipPath>
<clipPath id="clip1_333_1291">
<rect width="128.626" height="48" fill="white" transform="translate(542.293)"/>
</clipPath>
<clipPath id="clip2_333_1291">
<rect width="145.551" height="48" fill="white" transform="translate(766.824)"/>
</clipPath>
<clipPath id="clip3_333_1291">
<rect width="125.241" height="48" fill="white" transform="translate(1008.28)"/>
</clipPath>
<clipPath id="clip4_333_1291">
<rect width="110.573" height="48" fill="white" transform="translate(1229.43)"/>
</clipPath>
</defs>
</svg>
